<svg width="14" height="14" viewBox="0 0 14 14" fill="none" xmlns="http://www.w3.org/2000/svg">
<path fill-rule="evenodd" clip-rule="evenodd" d="M2.33334 1.66667C1.96515 1.66667 1.66668 1.96515 1.66668 2.33334V11.6667C1.66668 12.0349 1.96515 12.3333 2.33334 12.3333H11.6667C12.0349 12.3333 12.3333 12.0349 12.3333 11.6667V2.33334C12.3333 1.96515 12.0349 1.66667 11.6667 1.66667H2.33334ZM0.333344 2.33334C0.333344 1.22877 1.22877 0.333336 2.33334 0.333336H11.6667C12.7712 0.333336 13.6667 1.22877 13.6667 2.33334V11.6667C13.6667 12.7712 12.7712 13.6667 11.6667 13.6667H2.33334C1.22877 13.6667 0.333344 12.7712 0.333344 11.6667V2.33334Z" fill="#FAFAFA"/>
</svg>
